<svg width="36" height="32" viewBox="0 0 36 32" fill="none" xmlns="http://www.w3.org/2000/svg">
<path d="M35.125 13.875C35.625 14.4375 36 15.1875 36 16C36 17.6875 34.625 19 33.375 19.75C32.0625 20.5 30.375 21 29.125 21H22.8125L17.4375 30.5C16.875 31.4375 15.875 32 14.8125 32H11.3125C9.9375 32 9 30.75 9.375 29.5L11.8125 21H8.5L6.0625 24.25C5.6875 24.75 5.125 25 4.5 25H1.875C0.8125 25 0 24.1875 0 23.125C0 23 0 22.8125 0.0625 22.625L1.9375 16L0.0625 9.4375C0 9.25 0 9.0625 0 8.875C0 7.875 0.8125 7 1.875 7H4.5C5.125 7 5.6875 7.3125 6.0625 7.8125L8.5 11H11.8125L9.375 2.5625C9 1.3125 10 0 11.3125 0H14.8125C15.875 0 16.875 0.625 17.4375 1.5625L22.8125 11H29.125C30.4375 11 32.0625 11.5625 33.375 12.375C34.0625 12.75 34.6875 13.25 35.125 13.875ZM32.3125 14.0625C31.25 13.375 29.9375 13 29.125 13H22.25C21.875 13 21.5625 12.8125 21.375 12.5L15.6875 2.5625L16.5625 2.0625L15.6875 2.5625C15.5 2.25 15.1875 2 14.8125 2H11.3125L14.0625 11.75C14.1875 12.0625 14.125 12.375 13.9375 12.625C13.75 12.875 13.4375 13 13.125 13H8C7.6875 13 7.375 12.875 7.1875 12.625L4.5 9H2L3.9375 15.75C4 15.9375 4 16.125 3.9375 16.3125L2 23H4.5L7.1875 19.4375C7.375 19.1875 7.6875 19 8 19H13.125C13.4375 19 13.75 19.1875 13.9375 19.4375C14.125 19.6875 14.1875 20 14.0625 20.3125L11.3125 30H14.8125C15.1875 30 15.5 29.8125 15.6875 29.5L21.375 19.5C21.5625 19.1875 21.875 19 22.25 19H29.125C29.9375 19 31.25 18.625 32.3125 18C33.4375 17.3125 34 16.625 34 16C34 15.75 33.875 15.4375 33.5625 15.125C33.3125 14.75 32.875 14.375 32.3125 14.0625Z" fill="white"/>
</svg>
