<svg width="32" height="28" viewBox="0 0 32 28" fill="none" xmlns="http://www.w3.org/2000/svg">
<path d="M5 0H29C29.5 0 30 0.5 30 1C30 1.5625 29.5 2 29 2H5C3.3125 2 2 3.375 2 5V23C2 24.6875 3.3125 26 5 26H27C28.625 26 30 24.6875 30 23V9C30 7.375 28.625 6 27 6H7C6.4375 6 6 5.5625 6 5C6 4.5 6.4375 4 7 4H27C29.75 4 32 6.25 32 9V23C32 25.8125 29.75 28 27 28H5C2.1875 28 0 25.8125 0 23V5C0 2.25 2.1875 0 5 0ZM24 17.5C23.125 17.5 22.5 16.875 22.5 16C22.5 15.1875 23.125 14.5 24 14.5C24.8125 14.5 25.5 15.1875 25.5 16C25.5 16.875 24.8125 17.5 24 17.5Z" fill="white"/>
</svg>
