<svg width="32" height="33" viewBox="0 0 32 33" fill="none" xmlns="http://www.w3.org/2000/svg">
<path d="M5.9375 1.6875C6.125 2.1875 5.8125 2.75 5.3125 2.9375L2.625 4C2.25 4.125 2 4.5 2 4.9375V13C2 17.4375 5.5625 21 10 21C14.375 21 18 17.4375 18 13V4.9375C18 4.5 17.6875 4.125 17.3125 4L14.625 2.9375C14.125 2.75 13.8125 2.1875 14.0625 1.6875C14.25 1.1875 14.8125 0.875 15.3125 1.0625L18 2.125C19.1875 2.5625 19.9375 3.6875 19.9375 4.9375V13C19.9375 18.1875 16 22.5 10.9375 23C10.9375 27.4375 14.5625 31 18.9375 31C23.375 31 26.9375 27.4375 26.9375 23V16.875C25.25 16.4375 23.9375 14.875 23.9375 13C23.9375 10.8125 25.75 9 27.9375 9C30.1875 9 31.9375 10.8125 31.9375 13C31.9375 14.875 30.6875 16.4375 28.9375 16.875V23C28.9375 28.5625 24.5 33 18.9375 33C13.4375 33 8.9375 28.5625 8.9375 23C3.9375 22.5 0 18.1875 0 13V4.9375C0 3.6875 0.75 2.5625 1.9375 2.125L4.625 1.0625C5.125 0.875 5.6875 1.1875 5.9375 1.6875ZM28 15C29.0625 15 30 14.125 30 13C30 11.9375 29.0625 11 28 11C26.875 11 26 11.9375 26 13C26 14.125 26.875 15 28 15Z" fill="white"/>
</svg>
