<svg width="33" height="32" viewBox="0 0 33 32" fill="none" xmlns="http://www.w3.org/2000/svg">
<path d="M23.8125 6V6.0625C23.25 6.0625 22.75 5.8125 22.375 5.4375L20 3.0625C19.375 2.375 18.4375 2 17.5 2C15.5625 2 14 3.625 14 5.5625C14 6.5 14.375 7.375 15 8.0625L17.375 10.4375C17.75 10.8125 18 11.3125 18 11.875V18L30 6H23.8125ZM23.8125 4H30C30.8125 4 31.5 4.5 31.8125 5.25C32.125 6 31.9375 6.875 31.375 7.4375L19.375 19.4375C18.8125 20 17.9375 20.1875 17.1875 19.875C16.4375 19.5625 16 18.8125 16 18V11.875L14.75 10.625L9.0625 16.3125L12.75 30H23C23.5 30 24 30.5 24 31C24 31.5625 23.5 32 23 32H12H1C0.4375 32 0 31.5625 0 31C0 30.5 0.4375 30 1 30H10.6875L7 16.3125C6.9375 15.9375 7 15.5625 7.25 15.3125L13.375 9.25C12.4375 8.25 12 6.9375 12 5.5625C12 2.5 14.4375 0 17.5 0C19 0 20.375 0.625 21.4375 1.625L23.8125 4ZM23.625 18L25.0625 16.5625C25.4375 16.875 25.9375 17 26.5 17C27.875 17 29 15.9375 29 14.5C29 14 28.8125 13.5 28.5625 13.125L29.9375 11.6875C30.625 12.4375 31 13.4375 31 14.5C31 17 28.9375 19 26.5 19C25.375 19 24.4375 18.625 23.625 18Z" fill="white"/>
</svg>
