<svg width="24" height="25" viewBox="0 0 24 25" fill="none" xmlns="http://www.w3.org/2000/svg">
<g clip-path="url(#clip0_8993_3580)">
<path d="M8.41731 18.1548H5.82646V10.944H8.41731V18.1548ZM13.7963 13.2941C13.4937 13.2941 13.2035 13.4108 12.9896 13.6185C12.7756 13.8263 12.6554 14.108 12.6554 14.4018V18.1548H9.9313V10.944H12.6554V11.767C13.2939 11.2422 14.1006 10.9493 14.9371 10.9388C16.627 10.9388 17.7998 12.1553 17.7998 14.464V18.1548H14.9371V14.4018C14.9378 14.2559 14.9088 14.1113 14.8518 13.9763C14.7948 13.8413 14.7108 13.7186 14.6048 13.6152C14.4988 13.5118 14.3728 13.4297 14.2341 13.3737C14.0953 13.3177 13.9465 13.2889 13.7963 13.2889V13.2941ZM8.46529 8.4489C8.46529 8.70485 8.38712 8.95506 8.24068 9.16788C8.09424 9.38069 7.88609 9.54656 7.64256 9.64451C7.39904 9.74246 7.13107 9.76809 6.87254 9.71815C6.61401 9.66822 6.37654 9.54497 6.19016 9.36398C6.00377 9.183 5.87684 8.95241 5.82541 8.70137C5.77399 8.45034 5.80038 8.19013 5.90125 7.95367C6.00213 7.7172 6.17295 7.51508 6.39211 7.37288C6.61128 7.23068 6.86895 7.15479 7.13255 7.15479C7.48416 7.15752 7.82042 7.29507 8.06805 7.53746C8.31569 7.77986 8.45464 8.10747 8.45463 8.4489H8.46529Z" fill="#2A6472"/>
<rect x="1.7998" y="3.15479" width="20" height="20" rx="2" stroke="#53C4C9" stroke-width="2" stroke-linecap="round" stroke-linejoin="round"/>
</g>
<defs>
<clipPath id="clip0_8993_3580">
<rect width="24" height="24" fill="white" transform="translate(0 0.720215)"/>
</clipPath>
</defs>
</svg>
