<svg width="24" height="24" viewBox="0 0 24 24" fill="none" xmlns="http://www.w3.org/2000/svg">
<path d="M8.41828 17.4346H5.82744V10.2237H8.41828V17.4346ZM13.7972 12.5739C13.4947 12.5739 13.2045 12.6906 12.9905 12.8983C12.7766 13.1061 12.6564 13.3878 12.6564 13.6816V17.4346H9.93228V10.2237H12.6564V11.0468C13.2949 10.5219 14.1016 10.2291 14.9381 10.2186C16.628 10.2186 17.8008 11.435 17.8008 13.7437V17.4346H14.9381V13.6816C14.9388 13.5357 14.9098 13.3911 14.8527 13.2561C14.7957 13.1211 14.7118 12.9984 14.6058 12.895C14.4998 12.7916 14.3738 12.7095 14.235 12.6535C14.0963 12.5975 13.9475 12.5687 13.7972 12.5687V12.5739ZM8.46626 7.72869C8.46626 7.98464 8.3881 8.23484 8.24166 8.44766C8.09521 8.66048 7.88707 8.82635 7.64354 8.9243C7.40001 9.02225 7.13204 9.04787 6.87352 8.99794C6.61499 8.94801 6.37752 8.82475 6.19113 8.64377C6.00475 8.46278 5.87781 8.23219 5.82639 7.98116C5.77497 7.73012 5.80136 7.46992 5.90223 7.23345C6.0031 6.99698 6.17392 6.79487 6.39309 6.65267C6.61226 6.51047 6.86993 6.43457 7.13352 6.43457C7.48514 6.4373 7.82139 6.57485 8.06903 6.81725C8.31666 7.05965 8.45561 7.38725 8.4556 7.72869H8.46626Z" fill="white"/>
<rect x="1.80078" y="2.43457" width="20" height="20" rx="2" stroke="#53C4C9" stroke-width="2" stroke-linecap="round" stroke-linejoin="round"/>
</svg>
