<svg width="98" height="56" viewBox="0 0 98 56" fill="none" xmlns="http://www.w3.org/2000/svg">
<path d="M31.5258 24.8061C32.9874 19.3558 36.1623 17.2731 42.0356 10.8216C42.9886 9.77763 44.0701 8.99596 45.1997 8.42309C42.753 3.07987 38.6251 1.26489 38.6251 1.26489C38.6251 1.26489 30.8994 -3.49476 23.2272 5.45166C16.5187 13.2737 13.194 16.1542 11.7966 22.7181C11.7966 22.7181 9.9227 33.276 17.4985 38.0089C23.7251 41.9012 31.6222 39.1814 35.1665 37.4146C29.6519 32.9494 31.5258 24.8061 31.5258 24.8061Z" fill="#1A5B86"/>
<path d="M53.0483 28.7038C53.8728 24.335 56.0732 22.3808 60.4849 17.0965C60.8222 16.6896 61.1648 16.3255 61.5075 15.9989C59.9816 9.93826 55.4522 8.01084 55.4522 8.01084C53.7389 6.98824 49.1667 6.41537 45.2048 8.4231C46.4576 11.1643 47.2714 14.8371 46.8484 19.6717C45.9168 30.3903 38.8068 34.9839 36.8312 36.4563C36.5475 36.6704 35.9642 37.0184 35.1665 37.4146C35.3806 37.5859 35.5998 37.7519 35.83 37.9125C42.2066 42.2706 50.4891 38.5711 51.8758 37.6663C52.3737 37.3397 53.2838 36.7721 54.36 35.9155C52.4433 32.6603 53.0483 28.6984 53.0483 28.6984V28.7038Z" fill="#418DA6"/>
<path d="M46.8435 19.6717C47.2665 14.8371 46.4526 11.1643 45.1997 8.42309C44.0701 8.99596 42.9886 9.77763 42.0356 10.8216C36.1623 17.2731 32.9821 19.3558 31.5258 24.8061C31.5258 24.8061 29.6466 32.9494 35.1665 37.4146C35.9642 37.0184 36.5475 36.6651 36.8312 36.4563C38.8068 34.9839 45.9115 30.3849 46.8484 19.6717L46.8435 19.6717Z" fill="#03344C"/>
<path d="M70.8558 14.0983C70.8558 14.0983 66.2193 11.4588 61.5025 15.9989C62.0004 17.9745 62.1825 20.3838 61.7809 23.3124C60.9029 29.7424 57.0909 33.7472 54.355 35.9209C54.9868 36.997 55.897 37.9982 57.198 38.7531C62.4662 41.7995 68.7571 38.4051 69.7904 37.6127C71.1021 36.6062 76.2954 32.8584 76.7291 25.7484C77.3073 16.2827 70.8505 14.0983 70.8505 14.0983H70.8558Z" fill="#9FD4DC"/>
<path d="M61.7809 23.3124C62.1825 20.3838 62.0004 17.9692 61.5025 15.9989C61.1599 16.3255 60.8226 16.6895 60.48 17.0964C56.0737 22.3754 53.8679 24.3349 53.0433 28.7037C53.0433 28.7037 52.4383 32.6657 54.355 35.9209C57.0909 33.7472 60.9029 29.7424 61.7809 23.3124Z" fill="#306572"/>
<path d="M84.0212 29.5337C84.0212 29.5337 81.8689 28.3076 79.8291 30.7436C78.0462 32.8745 77.1575 33.6669 76.8255 35.4337C76.8255 35.4337 76.3918 38.2713 78.5013 39.492C80.6268 40.7234 83.1699 39.3528 83.5875 39.0315C84.1176 38.6246 86.2163 37.1095 86.393 34.2398C86.6286 30.4171 84.0212 29.5337 84.0212 29.5337Z" fill="#EBD060"/>
<path d="M6.56756 53.6991C6.56756 54.4278 6.28916 54.9928 5.74873 55.3941C5.2083 55.7953 4.4386 56 3.47238 56C2.41608 56 1.58087 55.7789 0.983124 55.3449C0.377187 54.911 0.0742188 54.2641 0.0742188 53.4289V53.3961H1.22877V53.4289C1.22877 53.8956 1.42529 54.2641 1.82652 54.5261C2.22775 54.7881 2.80093 54.9191 3.52969 54.9191C4.15201 54.9191 4.64331 54.8127 4.97084 54.608C5.29018 54.4115 5.46214 54.1085 5.46214 53.7236C5.46214 53.478 5.36388 53.2815 5.17555 53.1341C4.98722 52.9785 4.717 52.8557 4.38947 52.7492C4.07012 52.6428 3.70165 52.5527 3.3168 52.4626C2.95651 52.3726 2.6126 52.2825 2.27688 52.1842C1.92478 52.086 1.59725 51.955 1.31066 51.7994C1.01588 51.6438 0.770227 51.4309 0.590084 51.1853C0.40994 50.9314 0.31168 50.6121 0.31168 50.2354C0.31168 49.5476 0.581895 48.999 1.11414 48.6059C1.64638 48.2129 2.37514 48.0164 3.28404 48.0164C4.19295 48.0164 4.97084 48.2293 5.54402 48.6551C6.11721 49.0809 6.4038 49.6704 6.4038 50.3992V50.4319H5.24924V50.3992C5.24924 49.998 5.0691 49.6704 4.72519 49.4412C4.37309 49.2037 3.88998 49.0809 3.28404 49.0809C2.67811 49.0809 2.21956 49.1791 1.89203 49.3838C1.56449 49.5804 1.40892 49.8588 1.40892 50.2272C1.40892 50.4401 1.49899 50.6203 1.68732 50.7595C1.87565 50.9069 2.13768 51.0215 2.44883 51.1198C2.76818 51.2098 3.11209 51.3081 3.49694 51.3982C3.84904 51.4882 4.20932 51.5783 4.56142 51.6766C4.92171 51.7748 5.24924 51.914 5.55221 52.0778C5.84699 52.2416 6.09264 52.4545 6.28097 52.7083C6.4693 52.9621 6.55937 53.2897 6.55937 53.6909L6.56756 53.6991Z" fill="#03344C"/>
<path d="M11.4481 49.9816V51.4555H15.616V52.5528H11.4481V54.1249C11.4481 54.5016 11.7511 54.7964 12.1196 54.7964H16.1237V55.91H12.0049C11.0715 55.91 10.3181 55.1567 10.3181 54.2232V49.7933C10.3181 48.8598 11.0715 48.1065 12.0049 48.1065H16.1237V49.2037H12.226C11.792 49.2037 11.4481 49.5558 11.4481 49.9816Z" fill="#03344C"/>
<path d="M38.9686 53.6827C38.9686 54.4115 38.6902 54.9765 38.1498 55.3777C37.6093 55.7789 36.8396 55.9836 35.8734 55.9836C34.8253 55.9836 33.9819 55.7625 33.3842 55.3286C32.7864 54.8946 32.4753 54.2477 32.4753 53.4125V53.3797H33.6298V53.4125C33.6298 53.8792 33.8263 54.2477 34.2276 54.5097C34.6206 54.7717 35.1938 54.9028 35.9225 54.9028C36.5449 54.9028 37.0362 54.7963 37.3637 54.5916C37.6912 54.3951 37.855 54.0921 37.855 53.7073C37.855 53.4616 37.7567 53.2651 37.5684 53.1177C37.3719 52.9621 37.1099 52.8393 36.7823 52.7329C36.4548 52.6264 36.0945 52.5363 35.7097 52.4463C35.3494 52.3562 35.0055 52.2661 34.6697 52.1679C34.3176 52.0696 33.9901 51.9386 33.7035 51.783C33.4087 51.6274 33.1631 51.4145 32.9829 51.1689C32.8028 50.915 32.7127 50.5957 32.7127 50.219C32.7127 49.5312 32.9829 48.9826 33.5152 48.5896C34.0392 48.1965 34.768 48 35.6851 48C36.6022 48 37.3719 48.2129 37.9451 48.6387C38.5182 49.0645 38.8048 49.654 38.8048 50.3828V50.4156H37.6503V50.3828C37.6503 49.9816 37.4783 49.654 37.1262 49.4248C36.7741 49.1873 36.291 49.0645 35.6851 49.0645C35.0792 49.0645 34.6206 49.1627 34.2931 49.3675C33.9655 49.564 33.81 49.8424 33.81 50.2109C33.81 50.4238 33.9 50.6039 34.0884 50.7431C34.2767 50.8905 34.5387 51.0051 34.8499 51.1034C35.161 51.2016 35.5131 51.2917 35.898 51.3818C36.2501 51.4719 36.6022 51.5619 36.9625 51.6602C37.3228 51.7584 37.6503 51.8976 37.9533 52.0614C38.248 52.2252 38.4937 52.4381 38.682 52.6919C38.8703 52.9458 38.9604 53.2733 38.9604 53.6745L38.9686 53.6827Z" fill="#03344C"/>
<path d="M48.1071 48.0901V49.1873H45.4786V55.8935H44.3568V49.1873H41.7365V48.0901H48.1071Z" fill="#03344C"/>
<path d="M57.9978 49.957C57.6621 49.3592 57.1871 48.8843 56.5894 48.5322C55.9917 48.1883 55.312 48.0081 54.5505 48.0081C53.789 48.0081 53.1175 48.1801 52.528 48.5322C51.9302 48.8761 51.4635 49.3592 51.1196 49.957C50.7757 50.5547 50.6037 51.2425 50.6037 52.004C50.6037 52.7656 50.7757 53.4452 51.1196 54.0429C51.4635 54.6407 51.9384 55.1238 52.528 55.4677C53.1257 55.8116 53.8054 55.9918 54.5505 55.9918C55.2956 55.9918 55.9917 55.8198 56.5894 55.4677C57.1871 55.1156 57.6539 54.6407 57.9978 54.0429C58.3417 53.4452 58.5137 52.7574 58.5137 52.004C58.5137 51.2507 58.3417 50.5547 57.9978 49.957ZM54.5505 54.8863C53.9937 54.8863 53.4942 54.7635 53.0766 54.5179C52.659 54.2722 52.3233 53.9283 52.0858 53.4943C51.8484 53.0603 51.7255 52.5527 51.7255 51.9959C51.7255 51.4391 51.8484 50.9232 52.0858 50.4892C52.3233 50.0552 52.659 49.7195 53.0766 49.4739C53.4942 49.2282 53.9937 49.1054 54.5505 49.1054H54.616C55.1401 49.1054 55.615 49.2282 56.0162 49.4657C56.442 49.7113 56.7777 50.0634 57.0152 50.4892C57.2608 50.9232 57.3837 51.4309 57.3837 51.9959C57.3837 52.5609 57.2608 53.0521 57.0152 53.4943C56.7777 53.9283 56.4338 54.2722 56.0162 54.5179C55.5904 54.7635 55.0991 54.8863 54.5505 54.8863Z" fill="#03344C"/>
<path d="M88.0658 48.1146H86.944V55.9263H88.0658V48.1146Z" fill="#03344C"/>
<path d="M21.2486 53.0195H25.572V55.91H26.6856V51.4964C26.6856 49.6049 25.2199 48.0655 23.4267 48.0655H23.4103C22.5669 48.0655 21.7645 48.4013 21.1585 49.0072C20.4953 49.6623 20.135 50.5548 20.135 51.5046V55.9181H21.2486V53.0195ZM21.2486 51.4964C21.2486 50.8414 21.4942 50.2354 21.9446 49.7933C22.3376 49.392 22.8617 49.1791 23.4103 49.1791C24.5976 49.1791 25.5638 50.2273 25.5638 51.5046V52.0451H21.2404V51.5046L21.2486 51.4964Z" fill="#03344C"/>
<path d="M63.0177 55.9263V51.5128C63.0177 50.8823 63.2633 50.2928 63.7055 49.8506C64.1395 49.4166 64.7045 49.1873 65.3104 49.1873H65.3186C66.5796 49.1873 67.6032 50.2354 67.6032 51.5128V55.9263H68.7168V51.5128C68.7168 49.6213 67.1937 48.0819 65.3268 48.0737H65.3104C64.4097 48.0737 63.5581 48.4258 62.9194 49.0645C62.2644 49.7114 61.9041 50.5875 61.9041 51.5128V55.9263H63.0177Z" fill="#03344C"/>
<path d="M73.5319 49.9734V51.4473H77.6998V52.5446H73.5319V54.1167C73.5319 54.4934 73.8349 54.7882 74.2033 54.7882H78.2074V55.9018H74.0887C73.1552 55.9018 72.4019 55.1485 72.4019 54.215V49.7851C72.4019 48.8516 73.1552 48.0983 74.0887 48.0983H78.2074V49.1955H74.3098C73.8758 49.1955 73.5319 49.5476 73.5319 49.9734Z" fill="#03344C"/>
<path d="M91.6857 49.7851V55.9018H92.8075V53.2078H95.1903C96.0255 53.2078 96.697 52.9786 97.1883 52.5282C97.6796 52.0778 97.9252 51.4473 97.9252 50.6694C97.9252 49.8915 97.6714 49.2611 97.1801 48.7943C96.6806 48.3276 96.0091 48.0983 95.1821 48.0983H93.3643C92.4308 48.0983 91.6775 48.8516 91.6775 49.7851H91.6857ZM92.8075 49.8588C92.8075 49.4821 93.1105 49.1874 93.479 49.1874H95.1248C95.6652 49.1874 96.0828 49.3184 96.3694 49.5722C96.656 49.826 96.7952 50.1945 96.7952 50.6776C96.7952 51.1607 96.6478 51.5292 96.3694 51.7749C96.0828 52.0287 95.6652 52.1515 95.1248 52.1515H92.7993V49.867L92.8075 49.8588Z" fill="#03344C"/>
</svg>
