<svg width="98" height="56" viewBox="0 0 98 56" fill="none" xmlns="http://www.w3.org/2000/svg">
<path d="M75.2796 13.8344C74.8494 13.6075 70.5788 11.5382 66.1863 15.2975C66.1863 15.2975 66.1795 15.3042 66.1761 15.3076C66.1693 15.3008 66.1693 15.2975 66.166 15.2907C64.5471 9.92955 60.6253 8.07026 60.2189 7.88737C58.4104 6.82395 54.0179 6.34643 50.2045 8.09735C50.2045 8.10412 50.1977 8.10412 50.1943 8.10412L50.1875 8.09735C47.8202 3.24083 44.1355 1.45604 43.7528 1.28332C43.5056 1.13769 41.6192 0.0742722 38.8523 0.00315162C36.17 -0.0611955 32.1534 0.829505 28.1707 5.47943C27.1546 6.66478 26.2165 7.73159 25.3529 8.71711C20.659 14.0816 18.0681 17.0314 16.8896 22.5822C16.8693 22.6906 16.4222 25.2713 16.8964 28.4615C17.5297 32.7288 19.521 36.0172 22.6605 37.9781C25.0515 39.4784 27.6491 40 30.1112 40C34.4564 40 38.3917 38.371 40.1155 37.5379L40.1223 37.5311C40.2747 37.653 40.4271 37.7682 40.5897 37.8765C42.8994 39.4547 45.4462 40 47.8304 40C52.0062 40 55.6909 38.3371 56.7543 37.6429L56.9169 37.5379C57.3504 37.2534 58.0379 36.8097 58.8405 36.2001C58.8405 36.2001 58.8439 36.1967 58.8507 36.19L58.8575 36.1967C59.5484 37.2398 60.4492 38.0831 61.5364 38.7131C63.1552 39.6512 64.8689 39.9966 66.5046 39.9966C70.1826 39.9966 73.4474 38.2355 74.3245 37.565L74.4464 37.4769C78.7001 34.2392 81.0031 30.2599 81.2842 25.6438C81.8396 16.5471 75.8248 14.041 75.2829 13.8378L75.2796 13.8344ZM23.1042 37.2669C16.0192 32.8439 17.6956 22.8295 17.7125 22.7448C18.8437 17.4209 21.2279 14.7014 25.9828 9.27592C26.8465 8.287 27.7913 7.21681 28.8074 6.02808C32.3668 1.88277 35.8923 0.819345 38.5813 0.819345C41.2704 0.819345 43.194 1.92341 43.3464 2.01485L43.3938 2.04194C43.4311 2.06226 47.1395 3.74545 49.4459 8.48343C49.4154 8.50037 49.3883 8.51391 49.3578 8.53423C49.2122 8.6189 49.0632 8.70695 48.9175 8.79501C48.7956 8.8729 48.6703 8.9508 48.5518 9.03546C48.247 9.23866 47.9557 9.4588 47.6712 9.70264C47.5662 9.78731 47.4613 9.88214 47.363 9.97019C47.0921 10.2106 46.8381 10.468 46.5943 10.7356C45.2531 12.2088 44.0475 13.4551 42.9841 14.5625C40.8504 16.7673 39.2316 18.4471 38.0327 20.3572C37.9345 20.513 37.8397 20.6755 37.7448 20.8381C37.6669 20.9736 37.589 21.109 37.5145 21.2513C37.4265 21.4206 37.335 21.5933 37.2538 21.7694C36.8406 22.6229 36.4951 23.5508 36.2107 24.6041C36.2107 24.6109 36.2039 24.621 36.2039 24.6312C36.1971 24.6481 36.1937 24.6617 36.1937 24.6888C36.1768 24.7565 36.1565 24.8683 36.1294 25.0139C36.1192 25.0613 36.1091 25.1121 36.1023 25.1697C36.0921 25.2205 36.082 25.2848 36.0718 25.3492C36.0616 25.4338 36.0515 25.5185 36.0346 25.6099C36.0278 25.6607 36.0244 25.7149 36.0142 25.7725C35.9973 25.8944 35.9871 26.0197 35.9736 26.1484C35.9736 26.1958 35.9668 26.2433 35.9634 26.2907C35.8957 27.0933 35.8584 28.1195 35.9567 29.2676C36.082 30.7679 36.4139 32.1395 36.932 33.3722C37.0201 33.5754 37.1149 33.7753 37.2097 33.9751C37.308 34.1681 37.4096 34.3645 37.5179 34.5508C37.5823 34.6592 37.6432 34.7642 37.7177 34.8759C37.86 35.1062 38.0124 35.3331 38.1749 35.5533C38.2596 35.6684 38.3443 35.7802 38.4323 35.8886C38.5272 36.0037 38.622 36.1189 38.7202 36.2306C38.8455 36.3661 38.9674 36.4982 39.0961 36.6302C39.1943 36.7386 39.3061 36.8436 39.4212 36.9486C30.5278 41.1345 24.7061 38.2694 23.1143 37.2669H23.1042ZM40.4677 36.4237C40.4305 36.444 40.3932 36.4643 40.3526 36.4812C40.3153 36.5083 40.2747 36.5286 40.2307 36.549L40.2239 36.5422C40.146 36.4745 40.0681 36.4067 39.9868 36.3322C39.8649 36.2238 39.7464 36.1053 39.6312 35.9868C39.5093 35.8615 39.3908 35.7362 39.2858 35.6041C38.9708 35.2485 38.6999 34.8759 38.4594 34.4865C38.3951 34.3984 38.3443 34.3036 38.2901 34.2088C38.2325 34.1207 38.1817 34.0259 38.1343 33.931C38.0835 33.8362 38.0361 33.7414 37.9887 33.6466C37.9379 33.5517 37.8939 33.4535 37.8532 33.3587C37.6737 32.9828 37.5247 32.5933 37.396 32.2072C37.3655 32.1124 37.3317 32.0243 37.308 31.9295C37.1081 31.2691 36.9727 30.6087 36.8846 29.9686C36.8745 29.8907 36.8643 29.8061 36.8541 29.7282C36.8372 29.5825 36.8237 29.4403 36.8067 29.298C36.7898 29.1456 36.7796 29 36.7695 28.8578C36.7187 28.0145 36.739 27.2491 36.7796 26.6158C36.7898 26.4634 36.8067 26.3178 36.8169 26.1823C36.8237 26.1518 36.827 26.1179 36.827 26.0875C36.8372 25.9554 36.8541 25.8301 36.8677 25.7149C36.888 25.5625 36.9083 25.4271 36.9253 25.3119C36.9422 25.19 36.9625 25.0985 36.9727 25.0173C36.9794 24.9902 36.9828 24.9665 36.9896 24.9428C37.0065 24.8581 37.0167 24.8107 37.0167 24.8073C37.0167 24.8039 37.0167 24.8005 37.0235 24.7971C37.1285 24.3941 37.2504 24.0046 37.3791 23.6389C37.4773 23.351 37.589 23.0665 37.7042 22.7956C37.7211 22.7651 37.7313 22.7313 37.7448 22.7008C37.9176 22.291 38.1106 21.8981 38.3206 21.5222C38.3273 21.5154 38.3273 21.512 38.3273 21.512C38.4831 21.2174 38.6559 20.9295 38.8421 20.6518C39.9936 18.8535 41.5515 17.2448 43.5835 15.1383C44.6537 14.0342 45.8627 12.7811 47.214 11.291L47.4985 10.993C47.5866 10.8981 47.6814 10.8101 47.783 10.722C47.8914 10.617 48.0031 10.5188 48.1183 10.4172C48.186 10.3597 48.2605 10.3021 48.3283 10.2445C48.396 10.1869 48.4705 10.1294 48.5416 10.0752C48.6839 9.9668 48.8261 9.86182 48.9717 9.76021C49.1038 9.66539 49.2325 9.58072 49.3646 9.49944C49.4323 9.4588 49.5068 9.41139 49.5779 9.37413C49.6524 9.32672 49.7236 9.28608 49.7981 9.24205V9.24882H49.8048C49.8692 9.39445 49.9268 9.54347 49.9843 9.68909C50.0419 9.83472 50.0995 9.98712 50.1537 10.1395C50.2113 10.2919 50.2621 10.4443 50.3095 10.5967C50.4348 10.9794 50.5499 11.3655 50.6515 11.7651C50.6922 11.9175 50.7294 12.0733 50.7667 12.2359C50.7734 12.246 50.7734 12.263 50.7768 12.2765C50.8141 12.4391 50.8513 12.6016 50.8818 12.7676C50.9191 12.9403 50.9563 13.1198 50.98 13.2959L51.0749 13.8784C51.102 14.041 51.1223 14.2069 51.1392 14.3763C51.1595 14.5185 51.1765 14.6608 51.1866 14.7996C51.2273 15.2094 51.2611 15.626 51.2814 16.0527C51.2882 16.2085 51.2916 16.3677 51.2984 16.5234C51.3255 17.5259 51.2916 18.5622 51.2002 19.6324C50.3501 29.359 44.2304 33.8193 41.9308 35.4957L41.565 35.7632C41.3754 35.8987 41.0096 36.1358 40.4813 36.4169L40.4677 36.4237ZM56.4597 36.8368L56.2971 36.9418C54.9831 37.802 47.0582 41.2869 41.057 37.189C41.0198 37.162 40.9825 37.1382 40.952 37.1145C41.4126 36.8639 41.8021 36.6235 42.0527 36.4372L42.4083 36.1764C43.6038 35.306 45.7848 33.7143 47.7796 31.0828C49.7778 28.4412 51.5795 24.7633 52.0197 19.7103C52.1281 18.4539 52.162 17.238 52.1044 16.0696C52.0976 15.88 52.0875 15.6937 52.0739 15.5074C52.0435 14.952 51.9859 14.4 51.9046 13.8683C51.8843 13.7057 51.864 13.5432 51.8369 13.3874C51.8301 13.3603 51.8267 13.3298 51.8199 13.3027C51.7928 13.1334 51.7624 12.9742 51.7319 12.8116C51.6811 12.5271 51.6235 12.246 51.5524 11.9683C51.5151 11.8227 51.4846 11.6703 51.444 11.5213C51.3932 11.3215 51.339 11.1284 51.2814 10.9286C51.234 10.7762 51.1934 10.6238 51.1392 10.4714C51.0342 10.1294 50.9123 9.79408 50.7836 9.46557C50.743 9.3572 50.6989 9.24544 50.6515 9.13706C50.6143 9.04901 50.577 8.95757 50.5431 8.86951C54.0687 7.2439 58.214 7.67063 59.8125 8.62229L59.8633 8.64938C59.9006 8.66631 63.9985 10.4613 65.4852 15.9443V15.9511C65.1872 16.2491 64.9027 16.5539 64.625 16.8892C63.9578 17.6851 63.3415 18.4098 62.7759 19.0736C59.8667 22.484 58.1835 24.4551 57.4046 27.774C57.3538 27.9942 57.2996 28.2211 57.259 28.4548C57.2488 28.5327 57.0964 29.5351 57.1912 30.9237C57.198 31.032 57.2082 31.1438 57.2183 31.2589C57.2183 31.2962 57.2251 31.3368 57.2285 31.3809C57.2386 31.5163 57.2556 31.6518 57.2759 31.794C57.3233 32.1496 57.3843 32.5222 57.4757 32.8981C57.4926 32.9828 57.513 33.0708 57.5401 33.1589C57.5604 33.2571 57.5875 33.3587 57.618 33.4569C57.6552 33.5991 57.6958 33.7414 57.7433 33.8769C57.7805 33.9988 57.8212 34.1173 57.8686 34.2392C57.916 34.3713 57.9634 34.4966 58.021 34.6287C58.0582 34.7235 58.0989 34.8116 58.1361 34.9064C58.2242 35.0961 58.319 35.2823 58.4138 35.472C57.6078 36.0951 56.9271 36.5354 56.4597 36.8402V36.8368ZM59.0878 34.9335L59.081 34.9267C59.0302 34.8184 58.9726 34.6998 58.9184 34.5914C58.8338 34.4086 58.7559 34.2189 58.6915 34.0293C58.5764 33.7312 58.4816 33.4264 58.4037 33.1318C58.3766 33.0336 58.3529 32.9387 58.3292 32.8371C58.2987 32.7152 58.2716 32.6001 58.2513 32.4849C58.2242 32.3698 58.2038 32.258 58.1835 32.1429C57.899 30.48 58.0277 29.0711 58.0752 28.6884C58.0819 28.6376 58.0853 28.6038 58.0853 28.5902V28.5835C58.17 28.1432 58.2682 27.7232 58.3833 27.3304C58.4341 27.1306 58.4917 26.9409 58.5628 26.758C59.396 24.3196 60.8997 22.5619 63.4193 19.6053C63.9849 18.9382 64.6047 18.21 65.2753 17.4108C65.4209 17.238 65.5597 17.0822 65.7088 16.9197L65.7155 16.9129C65.7325 16.9806 65.7426 17.0552 65.7528 17.1263C65.7833 17.2821 65.8104 17.4446 65.8374 17.614C65.8645 17.7833 65.8849 17.9492 65.9018 18.1186C65.9289 18.2879 65.9424 18.4539 65.9526 18.6266C65.9797 18.867 65.9932 19.1075 66 19.3547C66.0169 19.6257 66.0203 19.9034 66.0203 20.1878C66.0203 21.1463 65.9526 22.142 65.8104 23.1681C65.7731 23.4458 65.7325 23.7168 65.6783 23.9911C65.6715 24.008 65.6715 24.0284 65.6681 24.0419C65.6173 24.3128 65.5631 24.5804 65.4954 24.8547C65.4954 24.8716 65.4886 24.8852 65.4852 24.9055C65.4209 25.1629 65.3532 25.4203 65.282 25.6743C65.2075 25.9452 65.1262 26.2128 65.0314 26.4803C64.9434 26.7479 64.8485 27.0086 64.7436 27.266C64.7232 27.3134 64.7063 27.3609 64.686 27.4083C64.6013 27.6284 64.5065 27.8418 64.4083 28.0585C64.0933 28.7562 63.7309 29.4301 63.3178 30.0905C63.2534 30.2057 63.1823 30.3208 63.1044 30.436C62.9588 30.6663 62.7996 30.8932 62.637 31.1167C62.549 31.2522 62.444 31.3944 62.339 31.5265C62.2713 31.6213 62.2035 31.7161 62.129 31.8042C62.0308 31.9295 61.9292 32.0548 61.8242 32.1767C61.7023 32.3291 61.577 32.4748 61.4483 32.6238C61.4178 32.661 61.3839 32.6983 61.3501 32.7322C61.2146 32.8879 61.0791 33.0403 60.9267 33.1927C60.8692 33.2571 60.8116 33.3181 60.754 33.3756C60.6964 33.44 60.6389 33.4975 60.5745 33.5551C60.4763 33.6635 60.3713 33.7651 60.2596 33.8633C60.1851 33.9412 60.1139 34.0157 60.0327 34.0767C59.8769 34.2291 59.7143 34.3747 59.5518 34.5169C59.4637 34.5948 59.3723 34.6727 59.2842 34.7472C59.2199 34.8048 59.1521 34.8624 59.0912 34.9166L59.0878 34.9335ZM80.4409 25.5964C80.0412 32.1632 75.4455 35.6583 73.9316 36.8097L73.8097 36.8978C72.8344 37.6429 66.8602 40.8297 61.9495 37.9815C60.9538 37.4058 60.1376 36.6302 59.5077 35.6718C59.5382 35.6447 59.5653 35.621 59.5958 35.5939C59.6534 35.5533 59.7109 35.4991 59.7685 35.4483C59.8769 35.3602 59.9886 35.2654 60.097 35.1638C60.2392 35.0419 60.3747 34.9233 60.5068 34.7913C60.6016 34.7134 60.6965 34.6219 60.7913 34.5305C60.9369 34.395 61.0791 34.2596 61.2146 34.1105C61.3094 34.0225 61.4043 33.9277 61.4923 33.8261C61.6007 33.7177 61.7057 33.5992 61.8073 33.484C61.9123 33.3689 62.0173 33.2537 62.1155 33.1386C62.2408 32.9963 62.3627 32.8541 62.4711 32.7085C62.5659 32.6035 62.6506 32.4985 62.7319 32.3935C62.8165 32.2953 62.8944 32.1903 62.9622 32.0887C63.0841 31.9363 63.1992 31.7737 63.3076 31.6179C63.3584 31.5536 63.4024 31.4926 63.4397 31.4351C63.5853 31.2318 63.7242 31.0253 63.8528 30.8153C64.1001 30.4394 64.3304 30.0499 64.5437 29.6503L64.7537 29.2506C64.8214 29.1186 64.8892 28.9899 64.9535 28.851L65.1466 28.448C65.2041 28.3125 65.2685 28.1771 65.3261 28.0382L65.5462 27.4929C65.5835 27.3981 65.6207 27.2999 65.6546 27.2051L65.9424 26.3618C65.9899 26.2195 66.0305 26.0739 66.0745 25.9317C66.1152 25.786 66.1592 25.6438 66.1964 25.4982L66.3048 25.0647C66.3556 24.8513 66.403 24.6346 66.4471 24.4144C66.4877 24.1943 66.5317 23.9674 66.569 23.7473L66.6367 23.2867C66.7112 22.7583 66.762 22.2402 66.7993 21.7254C66.8298 21.2106 66.8501 20.7128 66.8501 20.2217C66.8501 19.6934 66.8298 19.1684 66.7857 18.6604C66.7756 18.525 66.7654 18.3895 66.7485 18.2574C66.7282 18.0542 66.7078 17.8544 66.674 17.6546C66.6638 17.5564 66.6469 17.4616 66.6333 17.36C66.613 17.2279 66.5927 17.1026 66.5656 16.9773C66.5385 16.8079 66.508 16.6487 66.4708 16.4862C66.4504 16.3981 66.4301 16.3033 66.4064 16.2085C70.6669 12.2731 74.7174 14.4779 74.8901 14.5727L74.9578 14.6032C75.205 14.6879 80.9624 16.7741 80.4273 25.5862L80.4409 25.5964Z" fill="white"/>
<path d="M6.56756 53.6991C6.56756 54.4278 6.28916 54.9928 5.74873 55.3941C5.2083 55.7953 4.4386 56 3.47238 56C2.41608 56 1.58087 55.7789 0.983124 55.3449C0.377187 54.911 0.0742188 54.2641 0.0742188 53.4289V53.3961H1.22877V53.4289C1.22877 53.8956 1.42529 54.2641 1.82652 54.5261C2.22775 54.7881 2.80093 54.9191 3.52969 54.9191C4.15201 54.9191 4.64331 54.8127 4.97084 54.608C5.29018 54.4115 5.46214 54.1085 5.46214 53.7236C5.46214 53.478 5.36388 53.2815 5.17555 53.1341C4.98722 52.9785 4.717 52.8557 4.38947 52.7492C4.07012 52.6428 3.70165 52.5527 3.3168 52.4626C2.95651 52.3726 2.6126 52.2825 2.27688 52.1842C1.92478 52.086 1.59725 51.955 1.31066 51.7994C1.01588 51.6438 0.770227 51.4309 0.590084 51.1853C0.40994 50.9314 0.31168 50.6121 0.31168 50.2354C0.31168 49.5476 0.581895 48.999 1.11414 48.6059C1.64638 48.2129 2.37514 48.0164 3.28404 48.0164C4.19295 48.0164 4.97084 48.2293 5.54402 48.6551C6.11721 49.0809 6.4038 49.6704 6.4038 50.3992V50.4319H5.24924V50.3992C5.24924 49.998 5.0691 49.6704 4.72519 49.4412C4.37309 49.2037 3.88998 49.0809 3.28404 49.0809C2.67811 49.0809 2.21956 49.1791 1.89203 49.3838C1.56449 49.5804 1.40892 49.8588 1.40892 50.2272C1.40892 50.4401 1.49899 50.6203 1.68732 50.7595C1.87565 50.9069 2.13768 51.0215 2.44883 51.1198C2.76818 51.2098 3.11209 51.3081 3.49694 51.3982C3.84904 51.4882 4.20932 51.5783 4.56142 51.6766C4.92171 51.7748 5.24924 51.914 5.55221 52.0778C5.84699 52.2416 6.09264 52.4545 6.28097 52.7083C6.4693 52.9621 6.55937 53.2897 6.55937 53.6909L6.56756 53.6991Z" fill="white"/>
<path d="M11.4481 49.9816V51.4555H15.616V52.5528H11.4481V54.1249C11.4481 54.5016 11.7511 54.7964 12.1196 54.7964H16.1237V55.91H12.0049C11.0715 55.91 10.3181 55.1567 10.3181 54.2232V49.7933C10.3181 48.8598 11.0715 48.1065 12.0049 48.1065H16.1237V49.2037H12.226C11.792 49.2037 11.4481 49.5558 11.4481 49.9816Z" fill="white"/>
<path d="M38.9686 53.6827C38.9686 54.4115 38.6902 54.9765 38.1498 55.3777C37.6093 55.7789 36.8396 55.9836 35.8734 55.9836C34.8253 55.9836 33.9819 55.7625 33.3842 55.3286C32.7864 54.8946 32.4753 54.2477 32.4753 53.4125V53.3797H33.6298V53.4125C33.6298 53.8792 33.8263 54.2477 34.2276 54.5097C34.6206 54.7717 35.1938 54.9028 35.9225 54.9028C36.5449 54.9028 37.0362 54.7963 37.3637 54.5916C37.6912 54.3951 37.855 54.0921 37.855 53.7073C37.855 53.4616 37.7567 53.2651 37.5684 53.1177C37.3719 52.9621 37.1099 52.8393 36.7823 52.7329C36.4548 52.6264 36.0945 52.5363 35.7097 52.4463C35.3494 52.3562 35.0055 52.2661 34.6697 52.1679C34.3176 52.0696 33.9901 51.9386 33.7035 51.783C33.4087 51.6274 33.1631 51.4145 32.9829 51.1689C32.8028 50.915 32.7127 50.5957 32.7127 50.219C32.7127 49.5312 32.9829 48.9826 33.5152 48.5896C34.0392 48.1965 34.768 48 35.6851 48C36.6022 48 37.3719 48.2129 37.9451 48.6387C38.5182 49.0645 38.8048 49.654 38.8048 50.3828V50.4156H37.6503V50.3828C37.6503 49.9816 37.4783 49.654 37.1262 49.4248C36.7741 49.1873 36.291 49.0645 35.6851 49.0645C35.0792 49.0645 34.6206 49.1627 34.2931 49.3675C33.9655 49.564 33.81 49.8424 33.81 50.2109C33.81 50.4238 33.9 50.6039 34.0884 50.7431C34.2767 50.8905 34.5387 51.0051 34.8499 51.1034C35.161 51.2016 35.5131 51.2917 35.898 51.3818C36.2501 51.4719 36.6022 51.5619 36.9625 51.6602C37.3228 51.7584 37.6503 51.8976 37.9533 52.0614C38.248 52.2252 38.4937 52.4381 38.682 52.6919C38.8703 52.9458 38.9604 53.2733 38.9604 53.6745L38.9686 53.6827Z" fill="white"/>
<path d="M48.1071 48.0901V49.1873H45.4786V55.8935H44.3568V49.1873H41.7365V48.0901H48.1071Z" fill="white"/>
<path d="M57.9978 49.957C57.6621 49.3592 57.1871 48.8843 56.5894 48.5322C55.9917 48.1883 55.312 48.0081 54.5505 48.0081C53.789 48.0081 53.1175 48.1801 52.528 48.5322C51.9302 48.8761 51.4635 49.3592 51.1196 49.957C50.7757 50.5547 50.6037 51.2425 50.6037 52.004C50.6037 52.7656 50.7757 53.4452 51.1196 54.0429C51.4635 54.6407 51.9384 55.1238 52.528 55.4677C53.1257 55.8116 53.8054 55.9918 54.5505 55.9918C55.2956 55.9918 55.9917 55.8198 56.5894 55.4677C57.1871 55.1156 57.6539 54.6407 57.9978 54.0429C58.3417 53.4452 58.5137 52.7574 58.5137 52.004C58.5137 51.2507 58.3417 50.5547 57.9978 49.957ZM54.5505 54.8863C53.9937 54.8863 53.4942 54.7635 53.0766 54.5179C52.659 54.2722 52.3233 53.9283 52.0858 53.4943C51.8484 53.0603 51.7255 52.5527 51.7255 51.9959C51.7255 51.4391 51.8484 50.9232 52.0858 50.4892C52.3233 50.0552 52.659 49.7195 53.0766 49.4739C53.4942 49.2282 53.9937 49.1054 54.5505 49.1054H54.616C55.1401 49.1054 55.615 49.2282 56.0162 49.4657C56.442 49.7113 56.7777 50.0634 57.0152 50.4892C57.2608 50.9232 57.3837 51.4309 57.3837 51.9959C57.3837 52.5609 57.2608 53.0521 57.0152 53.4943C56.7777 53.9283 56.4338 54.2722 56.0162 54.5179C55.5904 54.7635 55.0991 54.8863 54.5505 54.8863Z" fill="white"/>
<path d="M88.0658 48.1146H86.944V55.9263H88.0658V48.1146Z" fill="white"/>
<path d="M21.2486 53.0195H25.572V55.91H26.6856V51.4964C26.6856 49.6049 25.2199 48.0655 23.4267 48.0655H23.4103C22.5669 48.0655 21.7645 48.4013 21.1585 49.0072C20.4953 49.6623 20.135 50.5548 20.135 51.5046V55.9181H21.2486V53.0195ZM21.2486 51.4964C21.2486 50.8414 21.4942 50.2354 21.9446 49.7933C22.3376 49.392 22.8617 49.1791 23.4103 49.1791C24.5976 49.1791 25.5638 50.2273 25.5638 51.5046V52.0451H21.2404V51.5046L21.2486 51.4964Z" fill="white"/>
<path d="M63.0177 55.9263V51.5128C63.0177 50.8823 63.2633 50.2928 63.7055 49.8506C64.1395 49.4166 64.7045 49.1873 65.3104 49.1873H65.3186C66.5796 49.1873 67.6032 50.2354 67.6032 51.5128V55.9263H68.7168V51.5128C68.7168 49.6213 67.1937 48.0819 65.3268 48.0737H65.3104C64.4097 48.0737 63.5581 48.4258 62.9194 49.0645C62.2644 49.7114 61.9041 50.5875 61.9041 51.5128V55.9263H63.0177Z" fill="white"/>
<path d="M73.5319 49.9734V51.4473H77.6998V52.5446H73.5319V54.1167C73.5319 54.4934 73.8349 54.7882 74.2033 54.7882H78.2074V55.9018H74.0887C73.1552 55.9018 72.4019 55.1485 72.4019 54.215V49.7851C72.4019 48.8516 73.1552 48.0983 74.0887 48.0983H78.2074V49.1955H74.3098C73.8758 49.1955 73.5319 49.5476 73.5319 49.9734Z" fill="white"/>
<path d="M91.6857 49.7851V55.9018H92.8075V53.2078H95.1903C96.0255 53.2078 96.697 52.9786 97.1883 52.5282C97.6796 52.0778 97.9252 51.4473 97.9252 50.6694C97.9252 49.8915 97.6714 49.2611 97.1801 48.7943C96.6806 48.3276 96.0091 48.0983 95.1821 48.0983H93.3643C92.4308 48.0983 91.6775 48.8516 91.6775 49.7851H91.6857ZM92.8075 49.8588C92.8075 49.4821 93.1105 49.1874 93.479 49.1874H95.1248C95.6652 49.1874 96.0828 49.3184 96.3694 49.5722C96.656 49.826 96.7952 50.1945 96.7952 50.6776C96.7952 51.1607 96.6478 51.5292 96.3694 51.7749C96.0828 52.0287 95.6652 52.1515 95.1248 52.1515H92.7993V49.867L92.8075 49.8588Z" fill="white"/>
</svg>
