<svg width="75" height="40" viewBox="0 0 75 40" fill="none" xmlns="http://www.w3.org/2000/svg">
<path d="M19.9347 24.8064C21.3963 19.356 24.5712 17.2733 30.4446 10.8218C31.3976 9.77773 32.4791 8.99605 33.6088 8.42317C31.162 3.0799 27.0341 1.2649 27.0341 1.2649C27.0341 1.2649 19.3083 -3.49479 11.636 5.45171C4.92748 13.2739 1.60266 16.1543 0.205268 22.7183C0.205268 22.7183 -1.66863 33.2764 5.90726 38.0093C12.1339 41.9016 20.0311 39.1818 23.5754 37.415C18.0608 32.9498 19.9347 24.8064 19.9347 24.8064Z" fill="#1A5B86"/>
<path d="M41.4575 28.7043C42.282 24.3354 44.4825 22.3812 48.8942 17.0968C49.2315 16.6899 49.5741 16.3259 49.9168 15.9993C48.3909 9.93856 43.8614 8.01113 43.8614 8.01113C42.1482 6.98852 37.5759 6.41564 33.6139 8.42338C34.8667 11.1646 35.6805 14.8375 35.2576 19.6721C34.326 30.3908 27.2159 34.9845 25.2403 36.4568C24.9565 36.671 24.3729 37.019 23.5752 37.4152C23.7894 37.5865 24.0089 37.7525 24.2391 37.9131C30.6157 42.2712 38.8983 38.5716 40.285 37.6668C40.7829 37.3402 41.6931 36.7727 42.7692 35.9161C40.8525 32.6609 41.4575 28.6989 41.4575 28.6989V28.7043Z" fill="#418DA6"/>
<path d="M35.254 19.6716C35.677 14.8369 34.8632 11.1641 33.6104 8.42285C32.4807 8.99573 31.3992 9.77741 30.4462 10.8214C24.5728 17.273 21.3926 19.3557 19.9363 24.806C19.9363 24.806 18.057 32.9494 23.577 37.4147C24.3747 37.0185 24.9583 36.6651 25.2421 36.4563C27.2177 34.984 34.3224 30.3849 35.2594 19.6716H35.254Z" fill="#03344C"/>
<path d="M59.2646 14.0979C59.2646 14.0979 54.6281 11.4584 49.9112 15.9985C50.4092 17.9742 50.5912 20.3835 50.1896 23.3121C49.3116 29.7422 45.4996 33.747 42.7637 35.9207C43.3954 36.9969 44.3056 37.9981 45.6066 38.753C50.875 41.7994 57.1659 38.405 58.1992 37.6126C59.5109 36.606 64.7043 32.8582 65.138 25.7481C65.7162 16.2823 59.2593 14.0979 59.2593 14.0979H59.2646Z" fill="#9FD4DC"/>
<path d="M50.1906 23.3133C50.5922 20.3847 50.4101 17.97 49.9122 15.9998C49.5695 16.3263 49.2322 16.6904 48.8896 17.0973C44.4833 22.3763 42.2774 24.3359 41.4529 28.7048C41.4529 28.7048 40.8479 32.6667 42.7646 35.9219C45.5005 33.7482 49.3126 29.7434 50.1906 23.3133Z" fill="#306572"/>
<path d="M72.4298 29.5346C72.4298 29.5346 70.2775 28.3085 68.2377 30.7446C66.4548 32.8755 65.566 33.6679 65.2341 35.4347C65.2341 35.4347 64.8004 38.2723 66.9099 39.493C69.0354 40.7244 71.5786 39.3538 71.9962 39.0326C72.5262 38.6257 74.625 37.1105 74.8017 34.2408C75.0372 30.418 72.4298 29.5346 72.4298 29.5346Z" fill="#EBD060"/>
</svg>
