<svg width="24" height="24" viewBox="0 0 24 24" fill="none" xmlns="http://www.w3.org/2000/svg">
<path d="M14.6752 7.67853V4.02179C14.6752 3.22067 14.0731 2.57124 13.3304 2.57124H3.91703C3.17434 2.57124 2.57227 3.22067 2.57227 4.02179V19.9778C2.57227 20.7789 3.17434 21.4284 3.91703 21.4284H13.3304C14.0731 21.4284 14.6752 20.7789 14.6752 19.9778V16.3818" stroke="#53C4C9" stroke-width="2" stroke-linecap="round" stroke-linejoin="round"/>
<path d="M7.95117 17.3792H9.29594" stroke="white" stroke-width="2" stroke-linecap="round" stroke-linejoin="round"/>
<path d="M19.5957 6.95828C22.0402 9.74271 22.0402 14.2572 19.5957 17.0416" stroke="white" stroke-width="2" stroke-linecap="round" stroke-linejoin="round"/>
<path d="M17.1816 9.13145C18.1155 10.8009 18.1265 13.2077 17.1816 14.8685" stroke="white" stroke-width="2" stroke-linecap="round" stroke-linejoin="round"/>
<path d="M14.2832 10.9241C14.6335 11.5503 14.6376 12.4531 14.2832 13.076" stroke="white" stroke-width="2" stroke-linecap="round" stroke-linejoin="round"/>
</svg>
