<svg width="24" height="25" viewBox="0 0 24 25" fill="none" xmlns="http://www.w3.org/2000/svg">
<path d="M14.6744 8.39879V4.74205C14.6744 3.94093 14.0723 3.2915 13.3297 3.2915H3.9163C3.17361 3.2915 2.57153 3.94093 2.57153 4.74205V20.6981C2.57153 21.4992 3.17361 22.1487 3.9163 22.1487H13.3297C14.0723 22.1487 14.6744 21.4992 14.6744 20.6981V17.102" stroke="#53C4C9" stroke-width="2" stroke-linecap="round" stroke-linejoin="round"/>
<path d="M7.95068 18.0996H9.29545" stroke="#2A6472" stroke-width="2" stroke-linecap="round" stroke-linejoin="round"/>
<path d="M19.5952 7.67871C22.0397 10.4631 22.0397 14.9776 19.5952 17.762" stroke="#2A6472" stroke-width="2" stroke-linecap="round" stroke-linejoin="round"/>
<path d="M17.1804 9.85156C18.1143 11.521 18.1253 13.9278 17.1804 15.5886" stroke="#2A6472" stroke-width="2" stroke-linecap="round" stroke-linejoin="round"/>
<path d="M14.2817 11.6445C14.632 12.2707 14.6361 13.1735 14.2817 13.7965" stroke="#2A6472" stroke-width="2" stroke-linecap="round" stroke-linejoin="round"/>
</svg>
