<svg width="33" height="33" viewBox="0 0 33 33" fill="none" xmlns="http://www.w3.org/2000/svg">
<path d="M8.43968 0.34651C5.24376 -0.749707 2.24918 1.19583 1.6941 4.39526C1.21543 7.15434 0.746094 11.1153 0.746094 16.0404C0.746094 20.9655 1.21543 24.9264 1.6941 27.6855C2.24918 30.885 5.24377 32.8305 8.43968 31.7343C10.9 30.8904 14.4663 29.4167 19.4452 26.8411C24.3329 24.3126 27.8498 22.1355 30.2861 20.4597C31.8832 19.3611 32.7461 17.732 32.7461 16.0404C32.7461 14.3489 31.8832 12.7196 30.2861 11.6211C27.8498 9.9453 24.3329 7.76817 19.4452 5.23973C14.4663 2.66411 10.9 1.19041 8.43968 0.34651Z" fill="white"/>
</svg>
