<svg width="265" height="273" viewBox="0 0 265 273" fill="none" xmlns="http://www.w3.org/2000/svg">
<path d="M254.871 205.656L254.869 205.661C244.941 227.051 225.613 245.124 203.144 256.899C180.672 268.674 155.173 274.091 132.977 270.306L132.972 270.306C110.804 266.628 91.8413 253.747 75.3429 236.039C58.8427 218.329 44.8653 195.852 32.6666 173.109C20.5724 150.367 10.3693 127.422 5.1453 106.166C-0.0813873 84.8984 -0.292568 65.4509 7.42738 49.6037C15.256 33.6423 31.1701 21.0464 50.7548 12.7447C70.3275 4.44817 93.4637 0.487394 115.57 1.72127L115.575 1.72151C159.747 3.98144 199.849 26.9879 228.675 66.7269C243.096 86.6069 254.678 110.704 260.13 135.164C265.584 159.627 264.893 184.384 254.871 205.656Z" stroke="white" stroke-width="2"/>
</svg>
